<?xml version="1.0" encoding="iso-8859-1"?>
<!-- Uploaded to: SVG Repo, www.svgrepo.com, Generator: SVG Repo Mixer Tools -->
<svg fill="#E2E2E2" height="800px" width="800px" version="1.1" id="Layer_1" xmlns="http://www.w3.org/2000/svg" xmlns:xlink="http://www.w3.org/1999/xlink" 
	 viewBox="0 0 512 512" xml:space="preserve">
<g>
	<g>
		<path d="M495.305,300.52h-16.717v-50.085c0-82.849-67.4-150.254-150.254-150.254h-8.858c-6.915-19.391-25.274-33.39-47.008-33.39
			h-10.891v-33.39h50.085c9.217,0,16.695-7.473,16.695-16.695s-7.478-16.695-16.695-16.695H178.102
			c-9.217,0-16.695,7.473-16.695,16.695s7.478,16.695,16.695,16.695h50.085v33.39h-11.369c-21.736,0-40.093,13.999-47.008,33.39
			h-19.554C67.272,100.181,0,167.451,0,250.435c0,83.689,0,148.47,0,244.859c0,9.222,7.478,16.695,16.695,16.695h100.17
			c9.217,0,16.695-7.473,16.695-16.695c0-86.424,0-158.422,0-244.859c0-9.22,7.475-16.695,16.695-16.695h19.553
			c6.915,19.391,25.274,33.39,47.008,33.39h55.65c21.736,0,40.093-13.999,47.008-33.39h8.859c9.206,0,16.695,7.489,16.695,16.695
			v50.085h-16.673c-9.217,0-16.695,7.473-16.695,16.695s7.478,16.695,16.695,16.695c36.413,0,130.835,0,166.949,0
			c9.217,0,16.695-7.473,16.695-16.695S504.522,300.52,495.305,300.52z M100.17,478.599H33.39v-33.39h66.78V478.599z
			 M289.162,217.044c0,9.206-7.489,16.695-16.695,16.695h-55.65c-9.021,0-16.348-7.202-16.64-16.153c0-0.006,0-101.238,0-101.246
			c0.289-8.953,7.617-16.161,16.64-16.161h55.65c9.206,0,16.695,7.489,16.695,16.695V217.044z"/>
	</g>
</g>
<g>
	<g>
		<path d="M462.763,416.803l-37.053-55.443c-6.196-9.272-21.565-9.272-27.76-0.001l-37.042,55.438
			c-6.739,10.076-10.293,21.825-10.293,33.976c0,33.754,27.467,61.215,61.215,61.215s61.215-27.461,61.215-61.215
			C473.045,438.6,469.491,426.852,462.763,416.803z"/>
	</g>
</g>
</svg>