<?xml version="1.0" encoding="iso-8859-1"?>
<!-- Uploaded to: SVG Repo, www.svgrepo.com, Generator: SVG Repo Mixer Tools -->
<!DOCTYPE svg PUBLIC "-//W3C//DTD SVG 1.1//EN" "http://www.w3.org/Graphics/SVG/1.1/DTD/svg11.dtd">
<svg fill="#E2E2E2" version="1.1" id="Capa_1" xmlns="http://www.w3.org/2000/svg" xmlns:xlink="http://www.w3.org/1999/xlink" 
	 width="800px" height="800px" viewBox="0 0 396.738 396.737"
	 xml:space="preserve">
<g>
	<g>
		<path d="M190.761,109.999c-3.576-9.132-8.076-22.535,7.609-37.755c0.646,13.375,14.067,13.99,11.351,36.794
			c6.231-2.137,6.231-2.137,9.188-3.781c17.285-9.612,20.39-25.205,7.64-42.896c-7.316-10.153-11.945-20.58-10.927-33.23
			c-4.207,4.269-5.394,9.444-6.744,17.129c-5.116-3.688,3.067-41.28-22.595-46.26c5.362,13.836,7.564,25.758-2.607,40.076
			c-0.667-5.422-3.255-12.263-8.834-17.183c-0.945,16.386,0.97,23.368-9.507,44.682c-2.945,8.902-5.02,17.635,0.533,26.418
			C171.354,102.673,180.555,108.205,190.761,109.999z"/>
		<path d="M330.738,371.614h-15.835v-61.829l-74.409-78.541v-21.516c0-6.073-4.477-11.087-10.309-11.957v-82.156h-63.632v82.156
			c-5.831,0.869-10.308,5.883-10.308,11.957v21.516l-74.409,78.541v61.829H66l-25.124,25.123h314.984L330.738,371.614z
			 M166.554,371.614h-61.717v-29.782h61.717V371.614z M166.554,319.956h-61.717v-1.007l51.471-54.329
			c0.555,5.513,4.813,9.919,10.246,10.729V319.956L166.554,319.956z M291.903,371.614h-61.718v-29.782h61.718V371.614z
			 M291.903,319.956h-61.718V275.35c5.435-0.811,9.691-5.217,10.246-10.729l51.472,54.329V319.956z"/>
	</g>
</g>
</svg>